<?xml version="1.0" encoding="UTF-8" standalone="no"?>
<svg
   width="700"
   height="450"
   fill="current"
   viewBox="0 0 131.25 73.828105"
   class="w-12 h-12 fill-accent"
   version="1.1"
   id="svg1"
   sodipodi:docname="logo_vertical_outline_black.svg"
   inkscape:version="1.3.2 (091e20ef0f, 2023-11-25)"
   xmlns:inkscape="http://www.inkscape.org/namespaces/inkscape"
   xmlns:sodipodi="http://sodipodi.sourceforge.net/DTD/sodipodi-0.dtd"
   xmlns="http://www.w3.org/2000/svg"
   xmlns:svg="http://www.w3.org/2000/svg">
  <defs
     id="defs1" />
  <sodipodi:namedview
     id="namedview1"
     pagecolor="#505050"
     bordercolor="#eeeeee"
     borderopacity="1"
     inkscape:showpageshadow="0"
     inkscape:pageopacity="0"
     inkscape:pagecheckerboard="0"
     inkscape:deskcolor="#505050"
     inkscape:zoom="0.4609375"
     inkscape:cx="452.33898"
     inkscape:cy="162.71186"
     inkscape:window-width="1266"
     inkscape:window-height="1378"
     inkscape:window-x="0"
     inkscape:window-y="0"
     inkscape:window-maximized="0"
     inkscape:current-layer="g2"
     showgrid="false" />
  <text
     xml:space="preserve"
     style="font-size:27.3503px;line-height:1;font-family:'Liberation Mono';-inkscape-font-specification:'Liberation Mono';letter-spacing:-0.133332px;word-spacing:-3.84611px;fill:#000000;fill-opacity:1;stroke:none;stroke-width:0.756866;stroke-linecap:round;stroke-linejoin:round;stroke-opacity:1"
     x="0.21990579"
     y="68.340942"
     id="text1"><tspan
       sodipodi:role="line"
       id="tspan1"
       style="font-weight:normal;stroke:none;stroke-width:0.756866;fill:#000000;fill-opacity:1"
       x="0.21990579"
       y="68.340942">OpenBeta</tspan></text>
  <g
     id="g2"
     transform="translate(42.125539,0.23311318)">
    <path
       d="m 36.427613,13.799926 c -0.0064,-0.01919 -0.887481,-2.284287 -1.018651,-2.614453 C 34.953384,10.03821 33.614804,9.6306219 33.284638,9.4828149 32.873211,9.2940581 32.489297,9.1801636 31.767539,9.0221185 A 30.202501,30.202501 0 0 0 27.83882,8.4334505 c 0,0 -3.615828,-0.3429627 -8.362923,0.050543 a 4.5941689,4.5941689 0 0 0 -1.757045,0.4805329 c -1.42816,0.7371147 -1.91573,2.0910506 -2.09873,2.5984576 -0.44534,1.236842 -0.303291,2.603575 0.131171,4.213453 0.05503,0.218191 0.01728,0.44598 -0.106213,0.643056 a 1.0576826,1.0576826 0 0 1 -0.566913,0.429983 c -0.243145,0.08127 -0.511246,0.0851 -0.75695,0.01148 A 1.073679,1.073679 0 0 1 13.737028,16.44761 c -0.241866,-0.367918 -0.619381,-0.657772 -1.073039,-0.822856 a 2.5786212,2.5786212 0 0 0 -1.435198,-0.08957 c -0.477334,0.106213 -0.899639,0.345522 -1.20165,0.678886 -0.3020133,0.334645 -0.4670957,0.744793 -0.468375,1.167738 -0.00128,0.422307 0.159964,0.833734 0.459417,1.169658 0.299452,0.335925 0.719838,0.577151 1.19653,0.686566 0.475414,0.109419 0.980261,0.08062 1.435199,-0.0819 0.454938,-0.162522 0.835013,-0.449818 1.079438,-0.816457 a 1.0365674,1.0365674 0 0 1 0.40183,-0.35064 c 0.168282,-0.08446 0.358319,-0.12989 0.552835,-0.130531 h 0.231628 c 0.430623,0 0.84973,0.118379 1.194612,0.339124 0.345522,0.220111 0.598266,0.5298 0.721758,0.883001 0.186198,0.532361 0.380714,1.087757 0.577151,1.670026 0.04479,0.135649 0.125415,0.372397 0.235467,0.692964 a 0.61170271,0.61170271 0 0 1 -0.04799,0.508686 c -0.08957,0.158044 -0.245064,0.281537 -0.436381,0.346163 -0.190678,0.06463 -0.403109,0.06526 -0.595067,0.0013 -0.190677,-0.06335 -0.347441,-0.186198 -0.438301,-0.344242 A 2.0635369,2.0635369 0 0 0 15.2906,21.175541 2.5184748,2.5184748 0 0 0 14.098547,20.896563 2.5050378,2.5050378 0 0 0 12.916092,21.203694 c -0.351921,0.195796 -0.633458,0.473495 -0.810697,0.79982 a 0.6500941,0.6500941 0 0 1 -0.263622,0.251465 0.79598136,0.79598136 0 0 1 -0.379434,0.09086 0.81453719,0.81453719 0 0 1 -0.386473,-0.09789 0.66353108,0.66353108 0 0 1 -0.265541,-0.259142 C 10.592132,21.595908 10.223574,21.27854 9.7673567,21.088503 a 2.5715829,2.5715829 0 0 0 -1.4710298,-0.1433 c -0.4946102,0.09725 -0.9361109,0.335924 -1.2515601,0.676968 -0.3160888,0.341044 -0.4862909,0.763349 -0.4843707,1.19845 0.00187,0.435103 0.1772394,0.857408 0.4965277,1.196532 0.3186487,0.338484 0.7627093,0.573312 1.2585987,0.666731 0.4958881,0.09342 1.0135317,0.03903 1.4691096,-0.153566 0.4542989,-0.193237 0.8190169,-0.513805 1.0340079,-0.908596 0.0595,-0.102381 0.151646,-0.188758 0.264901,-0.249545 0.113892,-0.06014 0.245064,-0.09214 0.378795,-0.09214 0.13437,0 0.2649,0.03199 0.378794,0.09214 0.113892,0.06078 0.205394,0.147168 0.264901,0.249545 0.17724,0.326966 0.458778,0.604024 0.811338,0.799821 a 2.5050378,2.5050378 0 0 0 1.182454,0.30713 2.5210342,2.5210342 0 0 0 1.191414,-0.278977 2.0641768,2.0641768 0 0 0 0.836931,-0.779345 c 0.06782,-0.117096 0.172762,-0.214992 0.302013,-0.284096 a 0.92779178,0.92779178 0 0 1 0.429984,-0.106214 h 0.494609 c 0.272577,0 0.538759,0.07422 0.758868,0.212433 0.220751,0.138208 0.383914,0.332725 0.467096,0.556034 a 114.02241,114.02241 0 0 0 1.190132,3.053396 0.38391383,0.38391383 0 0 1 0.02304,0.207952 0.40950809,0.40950809 0 0 1 -0.08957,0.194518 0.50100756,0.50100756 0 0 1 -0.184279,0.136929 0.58674832,0.58674832 0 0 1 -0.522762,-0.0256 0.46645531,0.46645531 0 0 1 -0.190038,-0.198994 c -0.198359,-0.409508 -0.556679,-0.746712 -1.012256,-0.955306 a 2.5632647,2.5632647 0 0 0 -1.488307,-0.188117 c -0.506765,0.08703 -0.962983,0.321847 -1.28995,0.664811 -0.327607,0.342323 -0.506767,0.771667 -0.506767,1.215087 0,0.442781 0.17916,0.872764 0.506767,1.215727 0.326967,0.342323 0.783185,0.577151 1.28995,0.663532 a 2.5639045,2.5639045 0 0 0 1.488307,-0.188119 c 0.456218,-0.207952 0.813897,-0.545797 1.012252,-0.954665 a 0.46069661,0.46069661 0 0 1 0.189398,-0.192598 0.57139176,0.57139176 0 0 1 0.281537,-0.07103 h 0.234827 c 0.261701,0 0.516363,0.06846 0.731356,0.195796 0.214992,0.127966 0.379435,0.30841 0.470934,0.518284 a 71.983844,71.983844 0 0 0 1.039126,2.261253 c 0.335285,0.694883 0.993698,2.00083 2.485203,2.561985 1.344339,0.506766 2.749462,0.189396 3.480819,-0.03328 1.938765,-0.772948 3.036119,-1.60732 5.075341,-2.756501 a 8.670694,8.670694 0 0 0 1.82679,-1.288671 c 0.329525,-0.306492 1.051283,-1.007134 1.243241,-2.116005 a 3.2415125,3.2415125 0 0 0 -0.113251,-1.548454 l 0.03007,-0.01664 c 0.191958,-0.1107 0.324407,-0.281537 0.369837,-0.476053 0.04479,-0.194516 -0.0013,-0.396712 -0.129249,-0.561155 l -6.23156,-8.002683 a 0.89323952,0.89323952 0 0 0 -0.554756,-0.317369 0.99561655,0.99561655 0 0 0 -0.654573,0.110059 l -3.018843,1.730171 c -0.191957,0.110701 -0.324407,0.281537 -0.369837,0.476055 -0.04479,0.194516 0.0013,0.39671 0.129248,0.561792 l 6.230282,8.002046 c 0.08703,0.1107 0.206033,0.199634 0.346162,0.257221 0.140129,0.05759 0.294975,0.08318 0.44982,0.07231 a 1.4774284,1.4774284 0 0 1 -0.08895,0.203475 c -0.09661,0.18108 -0.230348,0.345523 -0.395432,0.486291 -1.989952,1.475508 -3.489137,2.261252 -4.327987,2.659244 -0.396712,0.186837 -1.004576,0.515083 -1.533097,0.277697 -0.786384,-0.353842 -1.652749,-2.332277 -1.769842,-2.67716 -0.936111,-2.752662 -0.953386,-2.838403 -4.727899,-14.819074 -0.102381,-0.322487 -0.509326,-1.439676 -0.02943,-2.18063 0.103663,-0.152286 0.229708,-0.293054 0.374956,-0.417826 0.954666,-0.80238 8.916398,-0.559235 10.42582,-0.236747 0.824134,0.17596 1.672585,0.424864 2.159515,1.06984 0.263621,0.346801 0.389672,0.765907 0.49013,1.101832 0.135009,0.450459 0.207953,0.913715 0.215631,1.378891 0.04607,0.44022 0.04863,0.639856 0.230349,0.750551 0.124134,0.07486 0.26874,0.07039 0.659692,0.0076 0.494609,-0.08318 1.100553,-0.225229 2.105768,-0.644976 0.255942,-0.107496 0.329525,-0.146526 0.39799,-0.228429 0.179159,-0.230347 0.08958,-0.524682 -0.109419,-1.187572 z m -24.64023,4.569215 c -0.225869,0 -0.44726,-0.05758 -0.635377,-0.165083 A 1.0308087,1.0308087 0 0 1 10.73098,17.763837 0.85228872,0.85228872 0 0 1 10.66571,17.196924 c 0.04479,-0.190037 0.153565,-0.364718 0.313529,-0.502287 0.159964,-0.136929 0.363439,-0.230349 0.584829,-0.26874 0.222031,-0.03775 0.452378,-0.01792 0.660972,0.05631 0.209233,0.07422 0.387753,0.199634 0.513164,0.361518 0.126057,0.161244 0.192598,0.350641 0.192598,0.544518 0,0.260422 -0.120929,0.509326 -0.335285,0.693605 a 1.24772,1.24772 0 0 1 -0.808139,0.287934 z m -2.9945284,5.429182 c -0.2258687,0 -0.4472587,-0.05759 -0.6353772,-0.166363 A 1.0314485,1.0314485 0 0 1 7.735812,23.191739 0.85292858,0.85292858 0 0 1 7.6711811,22.624826 c 0.044147,-0.190677 0.1529254,-0.365358 0.3128894,-0.502927 0.159964,-0.136929 0.3640786,-0.230349 0.5861095,-0.26874 0.2220296,-0.03775 0.4517375,-0.01792 0.6609718,0.05631 0.209233,0.07422 0.387753,0.200274 0.5138044,0.361518 0.1254159,0.161244 0.1925959,0.351281 0.1925959,0.545158 0,0.260422 -0.1209291,0.509965 -0.3352844,0.694244 a 1.24772,1.24772 0 0 1 -0.8087788,0.287936 z m 5.3364024,0 c -0.225869,0 -0.44726,-0.05759 -0.635377,-0.165084 a 1.0314485,1.0314485 0 0 1 -0.422305,-0.440861 0.85228872,0.85228872 0 0 1 -0.06527,-0.566912 c 0.04479,-0.190677 0.153565,-0.365998 0.313529,-0.502927 0.159964,-0.137569 0.363439,-0.230989 0.585468,-0.26874 0.222031,-0.03839 0.452379,-0.0192 0.661612,0.05567 0.209233,0.07422 0.387753,0.199635 0.513804,0.361519 0.125416,0.161243 0.192598,0.351281 0.192598,0.545157 0,0.129249 -0.03007,0.257223 -0.08767,0.376236 -0.05758,0.119006 -0.142048,0.227149 -0.248264,0.318649 a 1.1734966,1.1734966 0 0 1 -0.372396,0.212432 c -0.13885,0.04927 -0.287936,0.07486 -0.438303,0.07486 h 0.0032 z m 2.613814,5.34216 c -0.22587,0 -0.4479,-0.05758 -0.636017,-0.165082 a 1.0314485,1.0314485 0 0 1 -0.421665,-0.440221 0.85292858,0.85292858 0 0 1 -0.06527,-0.567554 c 0.04415,-0.190677 0.152926,-0.365358 0.31289,-0.502927 0.159964,-0.137569 0.364078,-0.230347 0.586109,-0.26874 0.222029,-0.03839 0.451738,-0.01855 0.660971,0.05567 0.209233,0.07422 0.388393,0.200275 0.513805,0.361519 0.126057,0.161884 0.193237,0.351921 0.193237,0.545798 -0.0013,0.259781 -0.122852,0.509325 -0.337845,0.692324 -0.214992,0.183638 -0.505486,0.286655 -0.809418,0.286016 z m 15.654725,-3.063632 a 0.81901619,0.81901619 0 0 1 0.270661,-0.435102 c 0.138208,-0.118378 0.313529,-0.198996 0.505486,-0.232269 0.191957,-0.03199 0.390953,-0.016 0.572031,0.04863 0.180441,0.06399 0.335285,0.172761 0.444061,0.312249 0.108777,0.139489 0.166363,0.303292 0.166363,0.471574 0,0.167644 -0.05759,0.331447 -0.166363,0.470935 -0.108778,0.139489 -0.26362,0.248265 -0.4447,0.312251 a 1.1415038,1.1415038 0 0 1 -0.929712,-0.07807 0.93163092,0.93163092 0 0 1 -0.275138,-0.234188 0.78638351,0.78638351 0 0 1 -0.147807,-0.30713 0.73007615,0.73007615 0 0 1 0,-0.332086 z"
       id="path1"
       style="fill:#000000;fill-opacity:1;stroke-width:0.639856" />
    <circle
       style="fill:none;fill-opacity:1;stroke:#000000;stroke-width:1.161;stroke-dasharray:none;stroke-opacity:1"
       id="path2"
       cx="23.499458"
       cy="21.364855"
       r="21.786528" />
  </g>
</svg>
